# xmcd
#
# Track frame offsets: 
#        150
#        26284
#        47744
#        72814
#        92553
#        126127
#        148843
#        171204
#
# Disc length: 2568 seconds
#
# Revision: 0
# Processed by: cddbd v1.5.2PL0 Copyright (c) Steve Scherf et al.
# Submitted via: ExactAudioCopy v0.99pb5
#
DISCID=670a0608
DTITLE=Billy Jenkins - Jazz Gives Me The Blues
DYEAR=1900
DGENRE=Blues
TTITLE0=Jazz Gives Me The Blues
TTITLE1=I'm Just A Lucky So And So
TTITLE2=Black Coffee
TTITLE3=Do Nothing Till You Hear From Me
TTITLE4=God Bless The Child
TTITLE5=Travelin' All Alone
TTITLE6=For All We Know
TTITLE7=I Ain't Got Nothing But The Blues
EXTD=
EXTT0=
EXTT1=
EXTT2=
EXTT3=
EXTT4=
EXTT5=
EXTT6=
EXTT7=
PLAYORDER=
